<svg width="84" height="42" viewBox="0 0 84 42" fill="none" xmlns="http://www.w3.org/2000/svg">
<rect width="84" height="42" rx="21" fill="white"/>
<path d="M41.9941 6.08691C35.2866 6.08691 29.8263 11.5472 29.8263 18.2547C29.7807 28.0498 40.6557 35.8981 41.112 36.2327C41.3705 36.4152 41.6899 36.5217 41.9941 36.5217C42.2983 36.5217 42.6177 36.4304 42.8763 36.2327C43.3326 35.8981 54.2076 28.0651 54.162 18.2547C54.162 11.5472 48.7017 6.08691 41.9941 6.08691ZM41.9941 24.3387C38.6328 24.3387 35.9102 21.6161 35.9102 18.2547C35.9102 14.8934 38.6328 12.1708 41.9941 12.1708C45.3555 12.1708 48.0781 14.8934 48.0781 18.2547C48.0781 21.6161 45.3555 24.3387 41.9941 24.3387Z" fill="#FF8331"/>
</svg>
